<svg width="24.252075" height="30.661942" viewBox="0 0 24.2521 30.6619" fill="none" xmlns="http://www.w3.org/2000/svg" xmlns:xlink="http://www.w3.org/1999/xlink">
	<desc>
			Created with Pixso.
	</desc>
	<defs/>
	<path id="Vector" d="M14.15 12.21C14 11.35 13.2 10.77 12.36 10.92C11.52 11.07 10.97 11.9 11.12 12.75L11.96 17.49L10.95 17.67L9.18 7.7C9.02 6.83 8.22 6.24 7.38 6.39C6.54 6.53 5.98 7.36 6.14 8.24L8.06 19.05C5.57 17.11 2.38 15.05 1.46 16.43C0.56 17.77 3.96 20.43 9.15 26.64C11.49 29.44 14.12 31.19 17.93 30.51C22.12 29.77 24.89 25.64 24.12 21.29L22.63 12.89C22.47 12.02 21.67 11.43 20.83 11.58C19.99 11.73 19.44 12.56 19.59 13.43L20.06 16.05L19.04 16.23L18.39 12.54C18.24 11.68 17.44 11.1 16.59 11.25C15.75 11.4 15.2 12.21 15.35 13.08L15.82 15.72L14.81 15.9L14.15 12.21Z" fill="#FFFFFF" fill-opacity="1.000000" fill-rule="evenodd"/>
	<path id="Vector" d="M6.76 0L7.51 4.2L6.5 4.38L5.75 0.17L6.76 0ZM10.04 4.93L10.82 5.64L13.49 2.43L12.71 1.73L10.04 4.93ZM4.38 5.94L3.89 6.87L0.27 4.78L0.77 3.85L4.38 5.94ZM16 8.44L15.95 9.51L11.84 9.26L11.89 8.2L15.99 8.44L16 8.44ZM4.18 10.62L3.77 9.64L0 11.29L0.4 12.27L4.18 10.62Z" fill="#1986EC" fill-opacity="1.000000" fill-rule="evenodd"/>
</svg>
